<svg id="Layer_1" data-name="Layer 1" xmlns="http://www.w3.org/2000/svg" viewBox="0 0 512 512"><defs><style>.cls-1{fill:#072f5f;}</style></defs><path class="cls-1" d="M275.79,113.69c1.37,10.41,2.51,20.59.76,30.78-.51,2.95,1.11,3.86,3.27,5Q311,166.3,342.18,183.28c1.66.9,3.35,1.75,5,2.71,8,4.72,8.2,12.47.25,17.51-5.91,3.75-12,7.22-18,10.82Q270.74,249.48,212,284.58a13.6,13.6,0,0,0-6.37,7.46c-2.31,6.39-5,12.66-7.65,18.91-8.78,20.43-32.33,27.62-50.65,15.23-2.95-2-4.73-1.69-7.44-.08Q80.12,361.62,20.23,397c-1.79,1.06-3.54,2.21-5.4,3.13-5.1,2.51-10.2,1-12.69-3.59-2.36-4.39-1-9.23,3.76-12.18,8.55-5.25,17.23-10.28,25.86-15.38,32.57-19.27,65.1-38.61,97.78-57.7,3.65-2.13,4-3.77,2.43-7.45A700.31,700.31,0,0,0,74.13,194c-13.42-20.67-19.89-43.2-18.43-67.85A129.74,129.74,0,0,1,61.29,96a23.09,23.09,0,0,1,2.3-5.15c3-5.06,7.36-6.72,11.93-4.76,4.81,2.05,6.63,6.59,4.54,12.41a97.87,97.87,0,0,0-6.22,31A91.26,91.26,0,0,0,88.5,182.4,722.39,722.39,0,0,1,150.84,302c2.94,7.23,7.8,11.8,15.67,11.82,7.63,0,12.38-4.54,15.47-11.37a1276.89,1276.89,0,0,1,64.6-123.66c23.65-40,13.18-91.65-23.68-119.84A92.52,92.52,0,0,0,101,67c-.93.93-1.81,1.94-2.8,2.82C94,73.5,89.09,73.55,85.42,70c-3.5-3.38-3.71-8.72-.2-12.78a99,99,0,0,1,33.86-25.37c54.62-25.13,123.54-1.48,147.74,53.6a8.87,8.87,0,0,0,4.51,4.73q61,30.13,121.93,60.55c3,1.49,4.9.64,7.21-.67l55.35-31.25c2.51-1.41,5-2.68,8.05-2.07,3.93.8,6.5,3.07,7.26,7,.91,4.71-1.17,8.07-5.22,10.35-18.48,10.37-37.4,20-55.25,31.4-10.09,6.41-18,5.72-28.08.48-33.74-17.49-68-34-102-50.92C279.24,114.41,278,113.36,275.79,113.69Zm-53.26,143.4,103.31-61.92-53.26-28.81C259.45,198.18,236.69,224.32,222.53,257.09Z"/><path class="cls-1" d="M223.63,335.31c28,14.13,55.1,27.85,82.24,41.59q55.92,28.31,111.81,56.64c8.41,4.26,10.85,8.6,8.05,14.2s-7.77,6.31-16.09,2.11q-103-52.1-206-104.16c-4.08-2.06-7.72-4.4-7.87-9.46s3.37-7.58,7.29-9.91q59.54-35.35,119-70.88c4.33-2.59,8.19-2.87,12.78-.69q60.44,28.69,121,57.17c6,2.84,8.07,7.93,5.67,12.92-2.33,4.83-7.66,6.27-13.64,3.45q-56.68-26.7-113.28-53.57c-3.57-1.69-6.19-1.82-9.79.34C291.39,295.14,257.85,315,223.63,335.31Z"/><path class="cls-1" d="M385.58,490.18c-2.33-.09-4.55-1.17-6.76-2.23Q268.11,435,157.46,381.87c-4.88-2.35-8.46-2.44-13.3.47-28.54,17.14-57.32,33.86-86,50.7-2.11,1.24-4.28,2.41-6.5,3.46-5.11,2.41-9.66,1.09-12.12-3.4-2.54-4.64-1-9.6,4-12.56q18.57-10.95,37.18-21.83c20.92-12.18,42-24.16,62.75-36.55,5-3,9.2-2.79,14.3-.34q107.8,51.8,215.74,103.34c5.45,2.61,11,5.11,16.32,7.92,3.93,2.07,5.68,5.61,4.6,10S390.19,489.67,385.58,490.18Z"/><path class="cls-1" d="M166.73,67c35.43-.26,65.11,29.24,65.32,64.91S203.17,197.65,167.87,198c-37.46.37-66.36-27.83-66.64-65C101,95.63,129.12,67.23,166.73,67Zm-47.52,65.18a47.28,47.28,0,0,0,47.56,47.65c25.73,0,46.94-21.26,47-47.08a47.3,47.3,0,0,0-94.6-.57Z"/><path class="cls-1" d="M401.05,229.11l81.3,40.63c.85.42,1.71.81,2.55,1.24,7.58,3.84,10.2,8.71,7.56,14s-8.09,6.17-15.71,2.36q-47.92-24-95.86-47.95c-4.08-2-7.65-4.22-7.77-9.43-.11-4.93,3.11-7.3,6.85-9.54q57.46-34.41,114.86-68.91c6.53-3.91,11.88-3.18,14.83,1.91,2.87,4.93,1.12,9.87-5.13,13.63C485.4,178.6,466.22,190,447.06,201.48,432,210.51,416.94,219.57,401.05,229.11Z"/></svg>