<svg width="48" height="32" viewBox="0 0 48 32" fill="none" xmlns="http://www.w3.org/2000/svg">
<path d="M0 8C0 3.58172 3.58172 0 8 0H40C44.4183 0 48 3.58172 48 8V24C48 28.4183 44.4183 32 40 32H8C3.58172 32 0 28.4183 0 24V8Z" fill="currentColor"/>
<path fill-rule="evenodd" clip-rule="evenodd" d="M21.1757 16.4243C20.9414 16.19 20.9414 15.8101 21.1757 15.5758L25.9757 10.7758C26.2101 10.5414 26.5899 10.5414 26.8243 10.7758C27.0586 11.0101 27.0586 11.39 26.8243 11.6243L22.4485 16L26.8243 20.3758C27.0586 20.6101 27.0586 20.99 26.8243 21.2243C26.5899 21.4586 26.2101 21.4586 25.9757 21.2243L21.1757 16.4243Z" fill="#949494"/>
</svg>
