<svg width="50" height="33" viewBox="0 0 50 33" fill="none" xmlns="http://www.w3.org/2000/svg">
<path d="M21 32.5001H49.7L43.1 4.1001H14.3L21 32.5001Z" fill="#1A495C"/>
<path d="M32.4 32.6H3.90001L14.2 4H42.8L32.4 32.6Z" fill="#B3E2F5"/>
<path d="M31.4 32.5001L2 32.6001L12.4 4.00015L41.8 3.90015L31.4 32.5001Z" fill="#67C5EB"/>
<path d="M30.4 32.6H1.8L12.2 4H40.8L30.4 32.6Z" fill="#E6F7FF"/>
<path d="M40.8 4L34.1 22.3H5.60001L12.2 4H40.8Z" fill="white"/>
<path d="M21.5 11.8002C21.2 11.5002 20.9 11.2002 20.4 11.0002C19.9 10.8002 19.4 10.7002 18.7 10.7002C18.1 10.7002 17.5 10.8002 16.9 10.9002C16.3 11.1002 15.8 11.3002 15.2 11.6002C14.7 11.9002 14.2 12.4002 13.8 12.8002C13.4 13.3002 13 13.9002 12.7 14.6002L14.1 14.9002C14.5 15.0002 14.8 14.9002 15 14.8002C15.2 14.7002 15.5 14.5002 15.7 14.1002C15.9 13.8002 16.2 13.5002 16.6 13.3002C17 13.1002 17.4 13.0002 17.8 13.0002C18.3 13.0002 18.7 13.1002 18.8 13.4002C19 13.7002 19 14.1002 18.8 14.6002C18.7 14.9002 18.6 15.2002 18.4 15.5002C18.2 15.8002 18 16.1002 17.8 16.4002C17.5 16.7002 17.2 17.0002 16.9 17.3002L16.8 17.4002C16.5 17.7002 16.1 18.0002 15.7 18.3002L10.5 22.2002L10.4 22.3002H19.4C19.4 22.2002 19.4 22.0002 19.3 21.9002C19.2 21.7002 19 21.7002 18.7 21.7002H16.2C15.9 21.7002 15.6 21.7002 15.3 21.8002C14.9 21.8002 14.6 21.9002 14.2 22.0002L17.7 19.3002C18.2 18.9002 18.6 18.6002 19.1 18.2002C19.4 18.0002 19.7 17.7002 20 17.4002C20.1 17.3002 20.2 17.2002 20.3 17.1002C20.7 16.7002 21 16.3002 21.3 15.9002C21.6 15.5002 21.8 15.0002 22 14.5002C22.2 13.9002 22.2 13.4002 22.2 12.9002C21.9 12.6002 21.7 12.2002 21.5 11.8002Z" fill="#F6C05F"/>
<path fill-rule="evenodd" clip-rule="evenodd" d="M32.6 12.9001C32.5 12.5001 32.4 12.1001 32.1 11.7001C31.8 11.4001 31.4 11.1001 31 10.9001C30.5 10.7001 30 10.6001 29.3 10.6001C28.7 10.6001 28.1 10.7001 27.5 10.9001C26.9 11.1001 26.4 11.3001 25.9 11.7001C25.4 12.0001 25 12.4001 24.6 12.9001C24.2 13.3001 24 13.8001 23.8 14.3001C23.6 15.0001 23.5 15.6001 23.7 16.1001C23.8 16.6001 24.2 17.0001 24.7 17.3001C24.6 17.3501 24.5 17.3751 24.4 17.4001C24.3 17.4251 24.2 17.4501 24.1 17.5001L23.5 17.8001C23.2 18.0001 22.8 18.3001 22.6 18.5001C22.4 18.7001 22.1 19.1001 21.9 19.4001C21.8 19.5501 21.725 19.7251 21.65 19.9001C21.575 20.0751 21.5 20.2501 21.4 20.4001C21.2 21.0001 21.1 21.6001 21.2 22.0001V22.2001H24.8357C25.0238 22.3001 25.2619 22.3001 25.5 22.3001C25.6958 22.3001 25.8916 22.2575 26.0874 22.2001H29.8C29.8382 22.1619 29.8618 22.1237 29.882 22.0911C29.9146 22.0383 29.9382 22.0001 30 22.0001L30 22.0001C30.2 21.7001 30.4 21.4001 30.6 21.0001C30.65 20.9001 30.7 20.7751 30.75 20.6501L30.75 20.6501L30.75 20.6501C30.8 20.5251 30.85 20.4001 30.9 20.3001C30.9209 20.2166 30.9418 20.1375 30.9617 20.0618L30.9617 20.0618C31.0374 19.7749 31.1 19.5375 31.1 19.3001C31.1 19.0001 31.1 18.7001 31 18.4001C30.9 18.1001 30.8 17.9001 30.5 17.7001C30.3 17.5001 30 17.3001 29.7 17.2001C30.4 16.9001 31 16.5001 31.4 16.0001C31.9 15.5001 32.2 14.9001 32.4 14.2001C32.6 13.9001 32.6 13.4001 32.6 12.9001ZM26.0874 22.2001C26.1916 22.1696 26.2958 22.1348 26.4 22.1001L26.4 22.1001C26.7 22.0001 26.9 21.9001 27.1 21.7001C27.2 21.6001 27.275 21.5001 27.35 21.4001L27.35 21.4001C27.425 21.3001 27.5 21.2001 27.6 21.1001C27.7 20.9001 27.8 20.7001 27.9 20.4001C27.9129 20.3614 27.9258 20.3243 27.9383 20.2885L27.9383 20.2884C28.0225 20.0468 28.0871 19.8613 28 19.6001C28 19.4001 28 19.2001 27.9 19.0001C27.9 18.8001 27.7 18.7001 27.5 18.6001C27.3 18.5001 27.1 18.5001 26.7 18.5001C26.4 18.5001 26.1 18.5001 25.8 18.6001C25.5 18.7001 25.3 18.8001 25.1 19.0001L25.1 19.0001C24.9 19.2001 24.7 19.4001 24.6 19.6001C24.5 19.8001 24.4 20.1001 24.3 20.4001C24.3 20.5001 24.275 20.6251 24.25 20.7501C24.225 20.8751 24.2 21.0001 24.2 21.1001C24.2 21.3001 24.2 21.5001 24.3 21.7001C24.4 21.9001 24.5 22.0001 24.7 22.1001C24.7413 22.1414 24.7868 22.1741 24.8357 22.2001H26.0874ZM29.45 14.7501C29.5 14.6251 29.55 14.5001 29.6 14.4001C29.6333 14.3334 29.6556 14.2668 29.6778 14.2001C29.7222 14.0668 29.7667 13.9334 29.9 13.8001C29.9 13.6001 29.9 13.4001 29.8 13.3001C29.7 13.1001 29.6 13.0001 29.4 12.9001C29.2 12.8001 29 12.8001 28.7 12.8001C28.4 12.8001 28.1 12.8001 27.9 12.9001C27.7 13.0001 27.5 13.1001 27.3 13.3001C27.2 13.4001 27 13.6001 26.9 13.8001L26.6 14.4001C26.5 14.6001 26.4 14.9001 26.4 15.1001C26.3 15.3001 26.3 15.5001 26.4 15.7001C26.5 15.9001 26.6 16.0001 26.8 16.1001C26.9 16.3001 27.2 16.3001 27.5 16.3001C27.8 16.3001 28.1 16.2001 28.3 16.1001C28.3385 16.0808 28.3808 16.0616 28.4245 16.0416C28.6081 15.9579 28.8193 15.8616 28.9 15.7001C28.95 15.6001 29.025 15.5001 29.1 15.4001C29.175 15.3001 29.25 15.2001 29.3 15.1001C29.35 15.0001 29.4 14.8751 29.45 14.7501Z" fill="#F6C05F"/>
<path d="M34.4 6.40008C33.4 5.40008 33 4.00008 33.5 2.50008C33.9 1.50008 34.7 0.700079 35.8 0.400079C38.2 -0.299921 40.5 1.50008 40.5 3.80008H38.3C38.3 3.00008 37.6 2.40008 36.9 2.40008C36.1 2.40008 35.5 3.10008 35.5 3.80008C35.5 4.20008 35.7 4.60008 35.9 4.80008C36.2 5.10008 36.3 5.50008 36.2 5.90008C36 6.70008 35 7.00008 34.4 6.40008Z" fill="#1A495C"/>
<path d="M28.1 6.40008C27.1 5.50008 26.7 4.00008 27.2 2.50008C27.6 1.50008 28.4 0.700079 29.5 0.400079C31.9 -0.299921 34.2 1.50008 34.2 3.80008H32C32 3.00008 31.3 2.40008 30.6 2.40008C29.8 2.40008 29.2 3.10008 29.2 3.80008C29.2 4.20008 29.4 4.60008 29.6 4.80008C29.9 5.10008 30 5.50008 29.9 5.90008C29.6 6.70008 28.6 7.00008 28.1 6.40008Z" fill="#1A495C"/>
<path d="M21.7 6.40008C20.7 5.50008 20.3 4.00008 20.8 2.50008C21.2 1.50008 22 0.700079 23.1 0.400079C25.5 -0.299921 27.8 1.50008 27.8 3.80008H25.6C25.6 3.00008 24.9 2.40008 24.2 2.40008C23.4 2.40008 22.8 3.10008 22.8 3.80008C22.8 4.20008 23 4.60008 23.2 4.80008C23.5 5.10008 23.6 5.50008 23.5 5.90008C23.3 6.70008 22.3 7.00008 21.7 6.40008Z" fill="#1A495C"/>
<path d="M15.4 6.40008C14.4 5.50008 14 4.00008 14.5 2.50008C14.9 1.50008 15.7 0.700079 16.8 0.400079C19.2 -0.299921 21.5 1.50008 21.5 3.80008H19.3C19.3 3.00008 18.6 2.40008 17.9 2.40008C17.1 2.40008 16.5 3.10008 16.5 3.80008C16.5 4.20008 16.7 4.60008 16.9 4.80008C17.2 5.10008 17.3 5.50008 17.2 5.90008C16.9 6.70008 15.9 7.00008 15.4 6.40008Z" fill="#1A495C"/>
<path d="M34.1 22.3H5.6C0.400004 22.3 0.800004 17.5 0.800004 17.5H29.3C29.3 17.5 29.1 19.7 30.6 21.1C31.3 21.8 32.4 22.3 34.1 22.3Z" fill="#72AAC2"/>
</svg>
