<svg width="200" height="200" viewBox="0 0 200 200" fill="none" xmlns="http://www.w3.org/2000/svg">
<circle cx="100" cy="98.2" r="75" fill="#F2F4F7"/>
<circle cx="100" cy="98.2" r="65" fill="url(#paint0_linear)"/>
<path opacity="0.2" d="M145.215 158.2C137.715 163.8 129.215 168 119.915 170.5C118.515 165.7 119.715 160.3 123.515 156.5C129.115 150.9 138.115 150.9 143.715 156.5C144.215 157 144.715 157.6 145.215 158.2Z" fill="black"/>
<circle cx="140.2" cy="159.1" r="17.5" fill="#3E8AF7"/>
<path d="M148.5 161.7H131.9C130.5 161.7 129.3 160.5 129.3 159.1C129.3 157.7 130.5 156.5 131.9 156.5H148.5C149.9 156.5 151.1 157.7 151.1 159.1C151.1 160.5 150 161.7 148.5 161.7Z" fill="white"/>
<g opacity="0.3">
<path fill-rule="evenodd" clip-rule="evenodd" d="M82.6 94.8V71.3C82.6 62.3 75.3 54.9 66.2 54.9H38.7C30.5 66.5 25.5 80.6 25 95.8H67.0994C74.2699 109.5 88.2 109.5 88.2 109.5C82.6 103.8 82.6 94.8 82.7 94.8H82.6Z" fill="#051426"/>
</g>
<circle cx="52.5" cy="15" r="5" fill="#E4E8ED"/>
<path fill-rule="evenodd" clip-rule="evenodd" d="M10 182.5C10 178.3 13.4 174.9 17.6 174.9C21.7 174.9 25.1 178.3 25.2 182.5C25.2 186.7 21.8 190.1 17.6 190.1C13.4 190.1 10 186.7 10 182.5ZM14 182.4C14 184.4 15.6 186 17.6 186C19.5 186 21.2 184.4 21.2 182.4C21.2 180.4 19.6 178.8 17.6 178.8C15.6 178.8 14 180.4 14 182.4Z" fill="#E4E8ED"/>
<path opacity="0.2" d="M164.4 59.8H150C144.7 70.4 134.1 70.7 134.1 70.7C138.2 66.5 138.2 59.6 138.2 59.6V41.6C138.2 39.1 139 36.8 140.2 34.9C150.1 41.2 158.4 49.7 164.4 59.8Z" fill="#051426"/>
<path d="M177.9 51.9H129.4V33.8C129.4 27.1 134.8 21.7 141.5 21.7H177.8C184.5 21.7 189.9 27.1 189.9 33.8V39.9C190 46.5 184.6 51.9 177.9 51.9Z" fill="#E4E8ED"/>
<path d="M141.3 52C136.1 62.9 125.3 62.9 125.3 62.9C129.4 58.7 129.4 52 129.4 52H141.3Z" fill="#E4E8ED"/>
<path fill-rule="evenodd" clip-rule="evenodd" d="M75.7 88.7H26.4C17.3 88.7 10 81.3 10 72.3V64.1C10 55.1 17.3 47.8 26.4 47.7H75.4C84.5 47.7 91.8 55.1 91.8 64.1V88.7C91.8 88.7 91.8 97.7 97.3 103.4C97.3 103.4 82.7 103.4 75.7 88.7Z" fill="#D1D4D9"/>
<path d="M34 63.2C36.8 63.2 39 65.4 39 68.2C39 71 36.8 73.2 34 73.2C31.2 73.2 29 71 29 68.2C29 65.5 31.3 63.2 34 63.2Z" fill="white"/>
<path d="M50.6 63.2C53.4 63.2 55.6 65.4 55.6 68.2C55.6 71 53.4 73.2 50.6 73.2C47.8 73.2 45.6 71 45.6 68.2C45.6 65.5 47.9 63.2 50.6 63.2Z" fill="white"/>
<path d="M67.2 63.2C70 63.2 72.2 65.4 72.2 68.2C72.2 71 70 73.2 67.2 73.2C64.4 73.2 62.2 71 62.2 68.2C62.2 65.5 64.4 63.2 67.2 63.2Z" fill="white"/>
<path opacity="0.2" d="M175 98.2C175 103.1 174.5 107.8 173.6 112.4C169.4 115.2 163.7 114.8 160 111C155.8 106.8 155.8 99.9 160 95.7C164.1 91.6 170.7 91.5 174.9 95.4C175 96.3 175 97.2 175 98.2Z" fill="#051426"/>
<circle cx="169.8" cy="98.2" r="12.5" fill="#E4E8ED"/>
<defs>
<linearGradient id="paint0_linear" x1="55.6582" y1="79.9739" x2="29.3938" y2="174.381" gradientUnits="userSpaceOnUse">
<stop stop-color="#F2F4F7"/>
<stop offset="1" stop-color="#D1D4D9"/>
</linearGradient>
</defs>
</svg>
