<svg id="Layer_1" data-name="Layer 1" xmlns="http://www.w3.org/2000/svg" viewBox="0 0 512 512"><defs><style>.cls-1{fill:#f4f4f5;}.cls-2{fill:#072f5f;}</style></defs><path class="cls-1" d="M1,256C1.42,114.75,115.83.64,256.66,1c140.11.36,255,115.74,254.34,255.35C510.29,398.59,395.3,512,252.82,511,114.36,510,.59,394.79,1,256ZM173.22,150.59a30.34,30.34,0,0,0-4.19.53c-8.77,2.14-14.78,7.4-17.39,16.12-2.76,9.24-.07,17.1,6.58,23.77,20.34,20.37,40.63,40.8,61.13,61,3.15,3.1,3.41,4.66.11,7.91-20.27,19.93-40.25,40.15-60.39,60.2-7,7-9.7,15.23-6.63,24.74,5.45,16.9,26,21.36,39,8.43q30.71-30.37,61-61.12c3-3,4.41-2.72,7.14.12,9.55,9.9,19.38,19.53,29.11,29.26,11,11,21.93,22.12,33.07,33,6.43,6.29,14.2,8.47,23,5.83s14.12-8.61,16.06-17.43-1.3-16.25-7.61-22.55c-20.14-20.06-40.13-40.27-60.39-60.2-3.33-3.28-3.55-4.9-.07-8.32,20.29-19.91,40.26-40.14,60.4-60.2,6.32-6.29,9.62-13.6,7.69-22.53s-7.28-14.83-16-17.47c-9.21-2.79-17.11-.2-23.79,6.47-20.37,20.34-40.82,40.6-61,61.17-3.52,3.6-5.14,3-8.31-.18-19.95-20.24-40.15-40.24-60.2-60.39C186.65,153.79,181,150.69,173.22,150.59Z"/><path class="cls-2" d="M173.22,150.59c7.77.1,13.43,3.2,18.37,8.16,20,20.15,40.25,40.15,60.2,60.39,3.17,3.21,4.79,3.78,8.31.18,20.14-20.57,40.59-40.83,61-61.17,6.68-6.67,14.58-9.26,23.79-6.47,8.72,2.64,14.1,8.65,16,17.47s-1.37,16.24-7.69,22.53c-20.14,20.06-40.11,40.29-60.4,60.2-3.48,3.42-3.26,5,.07,8.32,20.26,19.93,40.25,40.14,60.39,60.2,6.31,6.3,9.58,13.62,7.61,22.55s-7.34,14.79-16.06,17.43-16.54.46-23-5.83c-11.14-10.87-22.06-22-33.07-33-9.73-9.73-19.56-19.36-29.11-29.26-2.73-2.84-4.18-3.13-7.14-.12q-30.3,30.75-61,61.12c-13.07,12.93-33.58,8.47-39-8.43-3.07-9.51-.42-17.72,6.63-24.74,20.14-20.05,40.12-40.27,60.39-60.2,3.3-3.25,3-4.81-.11-7.91-20.5-20.21-40.79-40.64-61.13-61-6.65-6.67-9.34-14.53-6.58-23.77,2.61-8.72,8.62-14,17.39-16.12A30.34,30.34,0,0,1,173.22,150.59Z"/></svg>