<svg width="18" height="18" viewBox="0 0 18 18" fill="none" xmlns="http://www.w3.org/2000/svg">
<path fill-rule="evenodd" clip-rule="evenodd" d="M9 18C13.9706 18 18 13.9706 18 9C18 4.02944 13.9706 0 9 0C4.02944 0 0 4.02944 0 9C0 13.9706 4.02944 18 9 18ZM13.8113 7.29629C14.0991 6.96098 14.0524 6.46263 13.7071 6.1832C13.3618 5.90377 12.8485 5.94907 12.5607 6.28439L8.44337 11.0818L5.34995 8.45362C5.01164 8.1662 4.49742 8.19948 4.2014 8.52797C3.90538 8.85645 3.93966 9.35575 4.27797 9.64317L7.99889 12.8045C8.16391 12.9447 8.38021 13.0143 8.5988 12.9976C8.8174 12.9808 9.0198 12.8792 9.16017 12.7156L13.8113 7.29629Z" fill="#28BD86"/>
</svg>
