<svg id="Layer_1" data-name="Layer 1" xmlns="http://www.w3.org/2000/svg" viewBox="0 0 512 512"><defs><style>.cls-1{fill:#072f5f;}</style></defs><path class="cls-1" d="M213.46,511Q151,511,88.63,511C38.05,510.94,1,474,1,423.56Q1,298.4,1,173.23C1,123.14,38.09,86.07,88.17,86q69.39-.06,138.78,0c12.18,0,21.29,5.52,26.4,16.66,5,10.91,3.19,21.22-4.47,30.3-6.29,7.46-14.82,9.84-24.35,9.83q-68.39-.12-136.78,0c-14.55,0-24.69,7.24-28.78,19.93a33.39,33.39,0,0,0-1.15,10.49q0,125.17,0,250.33c0,19.23,11.28,30.59,30.43,30.6q125.16.07,250.32,0c19.49,0,30.59-11.33,30.62-31.09,0-45.38,0-90.75,0-136.12,0-18.19,11.81-30.94,28.36-31,15.08,0,28.16,11.76,28.25,26.86.27,49.58,1,99.18-.27,148.73-1.13,43.43-39,78.6-82.62,79.36l-2,0Z"/><path class="cls-1" d="M412.33,57.81q-34.09,0-68.21,0c-6.29,0-12.32-.92-17.79-4.27A28.27,28.27,0,0,1,341.05,1.07c31.42-.12,62.84,0,94.26,0,15.93,0,31.86-.05,47.8,0A27.66,27.66,0,0,1,511,28.62q.09,70.36,0,140.73c0,17.23-11.78,29.68-27.94,29.85-16.54.18-28.66-12.14-28.78-29.73-.17-23.23-.05-46.45-.05-70.17-3,.8-4.42,3.1-6.15,4.83Q334.88,217.22,221.78,330.38c-8.41,8.43-17.89,12.81-29.88,9.5a28.1,28.1,0,0,1-14.45-45.09c1.67-2.05,3.6-3.9,5.47-5.78q111.48-111.49,223-222.95c2.31-2.31,4.95-4.3,7.44-6.43Z"/></svg>