<svg width="16" height="16" viewBox="0 0 16 16" fill="none" xmlns="http://www.w3.org/2000/svg">
<path fill-rule="evenodd" clip-rule="evenodd" d="M6.44643 1.5C3.71459 1.5 1.5 3.71459 1.5 6.44643C1.5 9.17827 3.71459 11.3929 6.44643 11.3929C9.17827 11.3929 11.3929 9.17827 11.3929 6.44643C11.3929 3.71459 9.17827 1.5 6.44643 1.5ZM0 6.44643C0 2.88616 2.88616 0 6.44643 0C10.0067 0 12.8929 2.88616 12.8929 6.44643C12.8929 7.95632 12.3738 9.34496 11.5043 10.4436L15.7803 14.7197C16.0732 15.0126 16.0732 15.4874 15.7803 15.7803C15.4874 16.0732 15.0126 16.0732 14.7197 15.7803L10.4436 11.5043C9.34496 12.3738 7.95632 12.8929 6.44643 12.8929C2.88616 12.8929 0 10.0067 0 6.44643Z" fill="#2D2D2D"/>
</svg>
