<svg width="16" height="16" viewBox="0 0 16 16" fill="none" xmlns="http://www.w3.org/2000/svg">
<path d="M13.9517 8.78333C13.985 8.53333 14.0017 8.275 14.0017 8C14.0017 7.73334 13.985 7.46667 13.9433 7.21667L15.635 5.9C15.7079 5.83992 15.7577 5.75642 15.776 5.66372C15.7942 5.57103 15.7797 5.47489 15.735 5.39167L14.135 2.625C14.0879 2.54131 14.0127 2.47698 13.9227 2.44343C13.8327 2.40987 13.7337 2.40925 13.6433 2.44167L11.6517 3.24167C11.235 2.925 10.7933 2.65834 10.3017 2.45834L10.0017 0.341669C9.98692 0.246277 9.93844 0.159342 9.86504 0.0966492C9.79165 0.0339567 9.6982 -0.000334587 9.60168 2.46116e-06H6.40168C6.20168 2.46116e-06 6.04334 0.141669 6.01001 0.341669L5.71001 2.45834C5.21834 2.65834 4.76835 2.93334 4.36001 3.24167L2.36835 2.44167C2.18501 2.375 1.97668 2.44167 1.87668 2.625L0.285012 5.39167C0.185012 5.56667 0.218346 5.78333 0.385012 5.9L2.07668 7.21667C2.03501 7.46667 2.00168 7.74167 2.00168 8C2.00168 8.25834 2.01835 8.53333 2.06001 8.78333L0.368346 10.1C0.295449 10.1601 0.24564 10.2436 0.227406 10.3363C0.209172 10.429 0.22364 10.5251 0.268346 10.6083L1.86835 13.375C1.96835 13.5583 2.17668 13.6167 2.36001 13.5583L4.35168 12.7583C4.76835 13.075 5.21001 13.3417 5.70168 13.5417L6.00168 15.6583C6.04335 15.8583 6.20168 16 6.40168 16H9.60168C9.80168 16 9.96834 15.8583 9.99334 15.6583L10.2933 13.5417C10.785 13.3417 11.235 13.075 11.6433 12.7583L13.635 13.5583C13.8183 13.625 14.0267 13.5583 14.1267 13.375L15.7267 10.6083C15.8267 10.425 15.785 10.2167 15.6267 10.1L13.9517 8.78333ZM8.00168 11C6.35168 11 5.00168 9.65 5.00168 8C5.00168 6.35 6.35168 5 8.00168 5C9.65168 5 11.0017 6.35 11.0017 8C11.0017 9.65 9.65168 11 8.00168 11Z" fill="#2D2D2D"/>
</svg>
