<svg width="200" height="200" viewBox="0 0 200 200" fill="none" xmlns="http://www.w3.org/2000/svg">
<path d="M175 99.95C175 119.863 167.19 137.975 154.573 151.384C153.471 152.585 152.37 153.686 151.168 154.787C149.166 156.588 147.063 158.389 144.96 159.99C141.255 162.692 137.35 165.193 133.244 167.195C130.641 168.496 128.037 169.596 125.334 170.597C123.531 171.298 121.629 171.798 119.726 172.398C113.418 174.099 106.809 175 100 175C76.0681 175 54.7397 163.793 41.0214 146.381C37.8171 142.378 35.1135 138.075 32.8104 133.472C32.51 132.872 32.2096 132.272 31.9092 131.671C31.8091 131.371 31.6088 130.971 31.5087 130.67C31.008 129.67 30.6075 128.569 30.2069 127.568C28.8051 124.166 27.7036 120.564 26.9025 116.961C26.7023 115.961 26.502 115.06 26.3017 114.059C26.3017 113.859 26.2016 113.659 26.2016 113.459C25.4005 109.156 25 104.653 25 100.05C25 58.6224 58.6449 25 100.1 25C118.725 25 135.848 31.8045 148.965 43.012C150.868 44.6131 152.67 46.3142 154.372 48.1154C155.574 49.3162 156.676 50.6171 157.777 52.018C163.685 59.1227 168.391 67.3282 171.395 76.3342C173.698 83.6391 175 91.6444 175 99.95Z" fill="#F2F4F7"/>
<circle cx="100" cy="100" r="65" fill="url(#paint0_linear)"/>
<path opacity="0.2" d="M145.216 160C137.716 165.6 129.216 169.8 119.916 172.3C118.516 167.5 119.716 162.1 123.516 158.3C129.116 152.7 138.116 152.7 143.716 158.3C144.216 158.8 144.716 159.4 145.216 160Z" fill="black"/>
<circle cx="140.2" cy="160.9" r="17.5" fill="#2EBC72"/>
<path d="M150.901 153.6C149.901 152.6 148.201 152.6 147.201 153.6L137.301 163.5L133.301 159.5C132.801 159 132.101 158.7 131.401 158.7C130.701 158.7 130.101 159 129.501 159.5C128.501 160.5 128.501 162.2 129.501 163.2L135.401 169.1C136.401 170.1 138.101 170.1 139.101 169.1L141.001 167.2L150.901 157.3C151.401 156.8 151.701 156.1 151.701 155.4C151.601 154.8 151.401 154.1 150.901 153.6Z" fill="white"/>
<path d="M150.3 153.5C149.3 152.5 147.6 152.5 146.6 153.5L136.7 163.4L132.7 159.4C132.2 158.9 131.5 158.6 130.8 158.6C130.1 158.6 129.5 158.9 128.9 159.4C127.9 160.4 127.9 162.1 128.9 163.1L134.8 169C135.8 170 137.5 170 138.5 169L140.4 167.1L150.3 157.2C150.8 156.7 151.1 156 151.1 155.3C151 154.6 150.8 154 150.3 153.5Z" fill="white"/>
<path opacity="0.3" d="M171 76.2C168.8 79 165.8 81.2 162.4 82.3C160.6 82.9 158.6 83.2 156.6 83.2C155.5 83.2 154.5 83.1 153.4 82.9C143.5 81.1 136.9 71.7 138.7 61.8L140 54.6C140.3 53 141.2 51.6 142.5 50.8C143.7 50 145.2 49.6 146.7 49.9L148.4 50.2L148.6 43.4C148.6 43.2 148.6 43.1 148.6 42.9C150.5 44.5 152.3 46.2 154 48L153.9 51.2L157.5 51.8C163.3 59 168 67.2 171 76.2Z" fill="black"/>
<path d="M149.8 49.8L150.3 36.2C150.4 32.5 153.4 29.4 157.1 29.3C161.1 29.2 164.3 32.6 164.1 36.5V37.1C164 38.7 165.3 40 166.9 40.1C168.5 40.2 169.8 38.9 169.9 37.3V37.1C170.1 30.2 165 24.1 158.1 23.6C150.9 23.1 144.7 28.7 144.4 35.9L143.9 49.7L149.8 49.8Z" fill="#B7BBBF"/>
<path d="M149.601 77C139.301 75.2 132.401 65.3 134.201 55L135.501 47.5C136.101 44.2 139.201 42 142.501 42.6L168.001 47.1C171.301 47.7 173.501 50.8 172.901 54.1L171.601 61.6C169.801 72 159.901 78.9 149.601 77Z" fill="#E4E8ED"/>
<path d="M150.301 73C142.301 71.6 137.001 63.9 138.401 55.9L139.601 48.9C139.901 47.5 141.201 46.5 142.601 46.8L166.401 51C167.801 51.3 168.801 52.6 168.501 54L167.301 61C165.901 69.1 158.301 74.4 150.301 73Z" fill="#F2F4F7"/>
<circle cx="152.8" cy="59.1" r="4.1" fill="#B7BBBF"/>
<path opacity="0.2" d="M85.0002 138L52.3002 144.2L45.4002 145.5L42.8002 146L41.0002 146.4C37.8002 142.4 35.1002 138.1 32.8002 133.5C32.5002 132.9 32.2002 132.3 31.9002 131.7C31.8002 131.4 31.6002 131 31.5002 130.7C31.0002 129.7 30.6002 128.6 30.2002 127.6L31.1002 127.4L34.9002 126.7L38.1002 126.1L40.1002 125.7L90.8002 116.1L93.6002 126.8C94.9002 131.8 91.0002 136.8 85.0002 138Z" fill="black"/>
<circle cx="18.6002" cy="34.5" r="4.4" fill="#E4E8ED"/>
<path d="M41.8002 41.6001L2.7002 79.3001L52.3002 108.5L93.8002 68.5001L47.0002 41.0001C45.3002 40.0001 43.2002 40.2001 41.8002 41.6001Z" fill="#D1D4D9"/>
<path d="M18.6006 141.2L93.8006 68.5001L100.201 122.4C100.801 127.4 97.5006 131.8 92.8006 132.4L18.6006 141.2Z" fill="#F2F4F7"/>
<path d="M92.8002 132.4L2.7002 79.3L9.1002 133.2C9.7002 138.2 13.9002 141.7 18.6002 141.2L92.8002 132.4Z" fill="#E4E8ED"/>
<path opacity="0.2" d="M52.2998 108.5L77.6998 123.5L55.3998 105.6L52.2998 108.5Z" fill="black"/>
<circle cx="64.4004" cy="77.3" r="5" fill="#E4E8ED"/>
<path d="M5.6002 81L42.1002 45.5001C43.5002 44.1001 45.6002 43.9001 47.3002 44.8001L91.8002 70.5001L93.8002 68.6001L46.8002 40.9001C45.2002 40.0001 43.2002 40.2001 41.9002 41.5001L2.7002 79.3001L5.6002 81Z" fill="#B7BBBF"/>
<ellipse opacity="0.2" cx="66.6998" cy="52.5" rx="8.9" ry="9.2" fill="black"/>
<circle cx="66.2004" cy="48.8001" r="6.8" fill="white"/>
<path fill-rule="evenodd" clip-rule="evenodd" d="M56.6006 48.9C56.6006 43.6 60.9006 39.3 66.2006 39.3C71.5006 39.3 75.8006 43.6 75.8006 48.9C75.8006 54.2 71.5006 58.5 66.2006 58.5C60.9006 58.5 56.6006 54.2 56.6006 48.9ZM61.7006 48.8C61.7006 51.3 63.7006 53.3 66.2006 53.3C68.7006 53.3 70.7006 51.3 70.7006 48.8C70.7006 46.3 68.7006 44.3 66.2006 44.3C63.7006 44.3 61.7006 46.3 61.7006 48.8Z" fill="#E4E8ED"/>
<circle cx="176.8" cy="184.5" r="5" fill="#E4E8ED"/>
<defs>
<linearGradient id="paint0_linear" x1="85.4571" y1="21.4128" x2="-34.1142" y2="101.234" gradientUnits="userSpaceOnUse">
<stop stop-color="#F2F4F7"/>
<stop offset="1" stop-color="#D1D4D9"/>
</linearGradient>
</defs>
</svg>
