<svg width="72" height="72" viewBox="0 0 72 72" fill="none" xmlns="http://www.w3.org/2000/svg">
<path fill-rule="evenodd" clip-rule="evenodd" d="M35.8953 65.2802C51.7712 65.4342 64.7592 52.6108 64.9786 36.5644C65.1958 20.7005 52.2414 7.5254 36.1108 7.44162C20.2186 7.35938 7.06461 20.1388 7.01662 36.3501C6.96979 52.2228 19.8394 65.1242 35.8953 65.2802ZM39.49 71.0737C37.3279 69.8341 34.6705 69.8341 32.5084 71.0737C29.255 72.939 25.0995 71.9005 23.0861 68.7367C21.7479 66.6338 19.3905 65.386 16.8994 65.4729C13.1551 65.6034 9.96219 62.7385 9.64163 59.0058C9.42799 56.5181 7.91818 54.3038 5.67111 53.2153C2.29011 51.5776 0.785522 47.5627 2.23099 44.0951C3.19339 41.7864 2.87589 39.1247 1.39046 37.1123C-0.845273 34.0834 -0.334665 29.8296 2.56077 27.4235C4.48299 25.8262 5.42111 23.3153 5.03641 20.8458C4.45917 17.1403 6.87563 13.5957 10.5448 12.8204C12.9853 12.3046 14.9786 10.5202 15.7774 8.15717C16.9772 4.60799 20.7627 2.59505 24.3655 3.62289C26.7617 4.30653 29.3416 3.66803 31.1432 1.94651C33.8592 -0.648836 38.1391 -0.648836 40.8552 1.94651C42.6567 3.66803 45.2367 4.30653 47.6329 3.62289C51.2356 2.59505 55.0212 4.60799 56.221 8.15716C57.0198 10.5202 59.013 12.3046 61.4535 12.8204C65.1227 13.5957 67.5392 17.1403 66.9619 20.8458C66.5772 23.3153 67.5154 25.8262 69.4376 27.4235C72.333 29.8296 72.8436 34.0834 70.6079 37.1123C69.1225 39.1247 68.805 41.7864 69.7674 44.0951C71.2128 47.5627 69.7082 51.5776 66.3272 53.2153C64.0802 54.3038 62.5704 56.5181 62.3567 59.0058C62.0362 62.7385 58.8432 65.6034 55.099 65.4729C52.6079 65.386 50.2505 66.6338 48.9123 68.7367C46.8989 71.9005 42.7433 72.939 39.49 71.0737Z" fill="#F0CD88"/>
<path fill-rule="evenodd" clip-rule="evenodd" d="M42.591 44.5002C42.2619 43.1161 41.9675 41.7212 41.5781 40.3557C41.3693 39.6239 41.5723 39.1706 42.1099 38.7286C43.2346 37.8042 44.3246 36.8348 45.4365 35.8937C45.9331 35.4734 46.1101 34.9596 45.8989 34.3299C45.6906 33.7092 45.1879 33.4873 44.619 33.4397C43.1902 33.3202 41.7604 33.2113 40.329 33.1389C39.7552 33.1097 39.4065 32.907 39.1967 32.3183C38.6783 30.8634 38.0975 29.4327 37.5555 27.9868C37.3329 27.3929 37.0142 26.9698 36.3331 26.9701C35.6279 26.9703 35.2239 27.3402 34.9782 28.0022C34.4552 29.4102 33.869 30.7941 33.3814 32.2149C33.152 32.8828 32.7826 33.1142 32.1337 33.1432C30.7224 33.2065 29.3127 33.3224 27.9045 33.4432C27.285 33.4964 26.7769 33.7551 26.5824 34.4494C26.3826 35.1621 26.7536 35.6063 27.2284 36.0109C28.3059 36.9291 29.3692 37.8664 30.4668 38.7586C30.9826 39.1779 31.132 39.6345 30.9612 40.291C30.6035 41.667 30.3113 43.0614 29.96 44.4391C29.7824 45.136 29.845 45.7294 30.4217 46.189C31.0025 46.6516 31.5413 46.3594 32.0484 46.041C32.9468 45.4776 33.8938 44.9666 34.6979 44.2791C35.784 43.3503 36.6995 43.2946 37.8109 44.2569C38.6715 45.0018 39.6876 45.564 40.6704 46.1421C41.6678 46.7288 42.6599 46.1608 42.6594 44.9524C42.6475 44.8715 42.6342 44.6819 42.591 44.5002ZM36.0268 58.1034C23.9405 57.9534 14.9009 48.3287 14.8518 36.7092C14.8019 24.7418 24.4674 15.2823 36.5633 15.2944C48.1663 15.3066 57.6652 24.9616 57.6622 36.7403C57.6592 48.6475 48.0562 58.2526 36.0268 58.1034Z" fill="#F0CD88"/>
</svg>
